<svg width="65" height="65" viewBox="0 0 65 65" fill="none" xmlns="http://www.w3.org/2000/svg">
<g filter="url(#filter0_d_5_44)">
<path d="M32.2353 2.14568C32.4947 2.4887 32.6736 2.88552 32.7586 3.30681C32.8437 3.7281 32.8327 4.16308 32.7266 4.57957C32.5332 5.27028 32.4295 5.9829 32.4181 6.69997C32.4181 11.4138 36.2625 15.2499 40.8096 15.2585C40.9067 15.2442 41.1923 15.2129 41.2894 15.21C41.7359 15.1914 42.1806 15.2779 42.5875 15.4623C42.9944 15.6468 43.3521 15.9242 43.6317 16.272C43.9114 16.6199 44.1052 17.0285 44.1974 17.4648C44.2896 17.9011 44.2778 18.353 44.1627 18.7839C43.9636 19.4893 43.8561 20.2172 43.8428 20.9499C43.8428 25.6638 47.6873 29.4999 52.4114 29.4999C53.0312 29.4999 53.6796 29.4115 54.4564 29.2177C54.8999 29.108 55.3632 29.1061 55.8076 29.212C56.252 29.318 56.6644 29.5287 57.0102 29.8266C57.3561 30.1245 57.6252 30.5009 57.7951 30.9241C57.965 31.3472 58.0307 31.8049 57.9867 32.2587C57.3274 39.3168 54.0444 45.873 48.7838 50.637C43.5231 55.4009 36.666 58.0275 29.5619 57.9998C13.8129 57.9998 1 45.2147 1 29.4999C1 13.785 13.8129 0.999985 29.5619 0.999985C29.7019 0.999985 29.8389 1.00853 30.0189 1.01994C30.4493 1.02952 30.8721 1.13569 31.2558 1.33057C31.6395 1.52546 31.9742 1.80405 32.2353 2.14568ZM46.699 39.4748C46.699 38.3411 46.2477 37.2537 45.4442 36.452C44.6407 35.6503 43.551 35.1999 42.4148 35.1999C41.2785 35.1999 40.1888 35.6503 39.3853 36.452C38.5818 37.2537 38.1305 38.3411 38.1305 39.4748C38.1305 40.6086 38.5818 41.696 39.3853 42.4977C40.1888 43.2994 41.2785 43.7498 42.4148 43.7498C43.551 43.7498 44.6407 43.2994 45.4442 42.4977C46.2477 41.696 46.699 40.6086 46.699 39.4748ZM23.8495 45.1748C23.8495 45.7362 23.9603 46.2921 24.1756 46.8108C24.3909 47.3295 24.7065 47.8007 25.1044 48.1977C25.5022 48.5947 25.9745 48.9096 26.4943 49.1244C27.0141 49.3392 27.5712 49.4498 28.1338 49.4498C28.6964 49.4498 29.2535 49.3392 29.7733 49.1244C30.2931 48.9096 30.7654 48.5947 31.1632 48.1977C31.5611 47.8007 31.8767 47.3295 32.092 46.8108C32.3073 46.2921 32.4181 45.7362 32.4181 45.1748C32.4181 44.041 31.9667 42.9537 31.1632 42.152C30.3598 41.3502 29.2701 40.8998 28.1338 40.8998C26.9975 40.8998 25.9078 41.3502 25.1044 42.152C24.3009 42.9537 23.8495 44.041 23.8495 45.1748ZM12.4248 36.6249C12.4248 37.7587 12.8761 38.846 13.6796 39.6477C14.4831 40.4494 15.5728 40.8998 16.709 40.8998C17.8453 40.8998 18.935 40.4494 19.7385 39.6477C20.542 38.846 20.9933 37.7587 20.9933 36.6249C20.9933 35.4911 20.542 34.4037 19.7385 33.602C18.935 32.8003 17.8453 32.3499 16.709 32.3499C15.5728 32.3499 14.4831 32.8003 13.6796 33.602C12.8761 34.4037 12.4248 35.4911 12.4248 36.6249ZM30.99 29.4999C32.1263 29.4999 33.216 29.0495 34.0194 28.2478C34.8229 27.4461 35.2743 26.3587 35.2743 25.2249C35.2743 24.0911 34.8229 23.0037 34.0194 22.202C33.216 21.4003 32.1263 20.9499 30.99 20.9499C29.8537 20.9499 28.764 21.4003 27.9605 22.202C27.1571 23.0037 26.7057 24.0911 26.7057 25.2249C26.7057 26.3587 27.1571 27.4461 27.9605 28.2478C28.764 29.0495 29.8537 29.4999 30.99 29.4999ZM12.4248 19.5249C12.4248 20.6587 12.8761 21.7461 13.6796 22.5478C14.4831 23.3495 15.5728 23.7999 16.709 23.7999C17.8453 23.7999 18.935 23.3495 19.7385 22.5478C20.542 21.7461 20.9933 20.6587 20.9933 19.5249C20.9933 18.3911 20.542 17.3038 19.7385 16.5021C18.935 15.7003 17.8453 15.2499 16.709 15.2499C15.5728 15.2499 14.4831 15.7003 13.6796 16.5021C12.8761 17.3038 12.4248 18.3911 12.4248 19.5249Z" fill="white"/>
</g>
<defs>
<filter id="filter0_d_5_44" x="0" y="0" width="65" height="65" filterUnits="userSpaceOnUse" color-interpolation-filters="sRGB">
<feFlood flood-opacity="0" result="BackgroundImageFix"/>
<feColorMatrix in="SourceAlpha" type="matrix" values="0 0 0 0 0 0 0 0 0 0 0 0 0 0 0 0 0 0 127 0" result="hardAlpha"/>
<feOffset dx="3" dy="3"/>
<feGaussianBlur stdDeviation="2"/>
<feComposite in2="hardAlpha" operator="out"/>
<feColorMatrix type="matrix" values="0 0 0 0 0 0 0 0 0 0 0 0 0 0 0 0 0 0 0.25 0"/>
<feBlend mode="normal" in2="BackgroundImageFix" result="effect1_dropShadow_5_44"/>
<feBlend mode="normal" in="SourceGraphic" in2="effect1_dropShadow_5_44" result="shape"/>
</filter>
</defs>
</svg>

